<?xml version="1.0" standalone="no"?>
<!DOCTYPE svg PUBLIC "-//W3C//DTD SVG 20010904//EN"
 "http://www.w3.org/TR/2001/REC-SVG-20010904/DTD/svg10.dtd">
<svg version="1.0" xmlns="http://www.w3.org/2000/svg"
 width="808.000000pt" height="916.000000pt" viewBox="0 0 808.000000 916.000000"
 preserveAspectRatio="xMidYMid meet">

<g transform="translate(0.000000,916.000000) scale(0.100000,-0.100000)"
fill="#000000" stroke="none">
<path d="M3740 8910 c-617 -41 -1190 -225 -1699 -547 -821 -519 -1386 -1320
-1605 -2273 -27 -122 -65 -395 -77 -560 -24 -338 15 -752 102 -1095 177 -695
530 -1286 1064 -1782 467 -433 1073 -744 1702 -872 289 -59 366 -66 743 -66
372 1 462 9 748 71 940 201 1761 773 2283 1589 215 336 373 708 464 1090 130
549 133 1113 9 1654 -173 749 -578 1420 -1159 1920 -498 429 -1084 708 -1735
825 -227 41 -605 62 -840 46z m93 -672 c2 -7 -3 -29 -11 -48 -20 -48 -19 -147
1 -186 22 -43 71 -82 112 -90 65 -12 139 32 164 99 16 41 13 143 -4 177 -23
45 -10 63 38 56 118 -19 267 -130 282 -210 20 -104 -17 -232 -99 -346 -58 -81
-58 -81 -32 -146 39 -99 230 -538 316 -729 45 -99 98 -217 117 -262 20 -46 40
-83 44 -83 36 0 52 155 23 211 -24 48 -13 63 44 54 69 -10 169 -61 217 -111
100 -102 84 -258 -47 -449 l-54 -80 147 -290 c177 -351 222 -433 352 -640 179
-287 279 -436 291 -432 6 2 17 20 23 40 16 48 2 128 -33 180 -14 21 -23 41
-20 44 11 11 132 -20 186 -47 139 -71 197 -194 156 -331 -16 -51 -58 -140 -88
-181 l-19 -28 -153 0 -153 0 -42 45 c-164 177 -498 691 -738 1135 -246 455
-603 1227 -829 1792 -33 81 -61 148 -64 148 -3 0 -32 -66 -64 -147 -74 -185
-212 -509 -304 -713 -67 -149 -87 -192 -227 -490 -321 -681 -758 -1408 -1036
-1724 l-41 -46 -153 0 -154 0 -20 29 c-12 16 -37 63 -57 105 -85 178 -41 322
124 405 56 28 177 59 188 48 3 -3 -6 -23 -20 -44 -35 -52 -49 -132 -33 -180 6
-20 17 -38 23 -40 6 -2 64 79 129 179 65 101 132 206 150 233 67 104 143 234
197 335 84 158 308 603 308 613 0 4 -23 43 -52 85 -29 42 -65 111 -81 152 -24
63 -28 85 -25 145 4 91 34 140 119 195 82 53 198 86 213 61 3 -5 -2 -26 -11
-47 -21 -51 -21 -140 1 -181 9 -18 20 -33 24 -33 4 0 22 33 39 73 18 39 69
153 113 252 76 167 210 474 309 708 l42 99 -61 94 c-74 113 -100 185 -100 271
0 77 15 116 66 166 44 44 95 72 174 98 66 22 87 23 93 7z m261 -1901 c66 -155
171 -403 234 -552 62 -148 168 -391 234 -540 66 -148 137 -307 156 -352 20
-46 40 -83 45 -83 16 0 37 70 37 125 0 31 -7 72 -15 92 -23 55 -9 64 68 47
114 -27 224 -112 246 -191 28 -99 -6 -226 -93 -353 -31 -45 -56 -86 -56 -91 0
-11 222 -457 303 -609 67 -126 115 -205 272 -450 178 -279 199 -310 207 -310
16 0 31 47 30 98 0 41 -8 69 -31 113 l-31 59 29 0 c83 0 226 -69 274 -132 78
-102 73 -218 -16 -375 l-41 -73 -163 0 -163 0 -86 108 c-458 576 -1001 1602
-1505 2844 -35 87 -67 158 -70 158 -3 0 -30 -60 -59 -132 -270 -680 -713
-1615 -975 -2058 -235 -396 -412 -661 -569 -848 l-61 -72 -165 2 -165 3 -48
96 c-54 107 -68 182 -48 256 30 112 153 201 303 220 l48 6 -31 -61 c-24 -46
-32 -74 -32 -115 0 -50 15 -97 31 -97 9 0 296 444 392 605 39 66 144 265 233
441 l161 321 -61 94 c-127 194 -138 351 -30 446 56 49 116 81 184 97 77 18 94
6 67 -45 -23 -45 -23 -144 0 -188 10 -19 21 -30 27 -24 8 8 43 83 186 403 72
160 111 252 233 540 45 107 116 274 157 370 41 96 104 246 140 333 47 112 70
157 82 157 12 0 49 -78 135 -283z"/>
<path d="M564 1156 c-3 -7 -4 -39 -2 -70 l3 -57 140 -2 140 -2 3 -357 2 -358
70 0 70 0 2 358 3 357 140 1 140 1 3 71 3 72 -356 0 c-291 0 -357 -2 -361 -14z"/>
<path d="M1530 740 l0 -430 70 0 70 0 2 177 3 178 215 0 215 0 3 -177 2 -178
70 0 70 0 0 430 0 430 -70 0 -70 0 0 -180 0 -180 -220 0 -220 0 0 180 0 180
-70 0 -70 0 0 -430z"/>
<path d="M3620 1166 c-3 -2 -4 -196 -2 -431 l2 -426 65 3 65 3 1 425 0 425
-63 3 c-35 2 -66 1 -68 -2z"/>
<path d="M4390 1100 l0 -69 143 -3 142 -3 3 -358 2 -357 70 0 70 0 0 359 0
360 143 0 142 0 0 68 -1 68 -357 3 -357 2 0 -70z"/>
<path d="M5360 740 l0 -430 70 0 70 0 2 177 3 178 210 0 210 0 3 -177 2 -178
73 0 72 0 -2 427 -3 428 -67 0 -68 0 -3 -177 -2 -178 -215 0 -215 0 0 180 0
180 -70 0 -70 0 0 -430z"/>
<path d="M7440 740 l0 -430 70 0 70 0 0 430 0 430 -70 0 -70 0 0 -430z"/>
<path d="M2721 741 c-116 -231 -211 -423 -211 -426 0 -3 35 -5 78 -3 l77 3 33
68 34 67 201 -2 202 -3 33 -68 33 -67 80 0 79 0 -211 423 c-116 232 -213 424
-215 426 -1 2 -98 -186 -213 -418z m273 -14 c31 -62 56 -119 56 -125 0 -9 -35
-12 -120 -12 -66 0 -120 2 -120 4 0 17 116 246 125 246 1 0 28 -51 59 -113z"/>
<path d="M6541 731 c-116 -230 -208 -420 -206 -422 2 -2 36 -3 77 -1 l73 3 38
70 38 69 199 0 198 0 34 -67 34 -68 77 -3 c42 -2 77 0 77 3 0 13 -416 835
-422 835 -5 0 -102 -188 -217 -419z m291 -29 c28 -56 49 -105 46 -108 -3 -2
-60 -3 -127 -2 l-121 3 62 124 c71 143 60 144 140 -17z"/>
</g>
</svg>
